<svg id="Layer_1" xmlns="http://www.w3.org/2000/svg" viewBox="0 0 100 26">
    <style>
        .st0{fill:#FFFFFF;}
    </style>
    <path class="st0" d="M0 25.3V8.5h3.5l.3 2.1C5.2 8.8 6.9 8 8.7 8c2.2 0 3.5.9 4.1 2.6C14.2 8.9 16 8 17.8 8c3.1 0 4.5 1.8 4.5 5v12.3h-4.1V13.5c0-1.8-.5-2.5-1.8-2.5-1.2 0-2.4 1-3.2 2.3v11.9H9.1V13.4c0-1.7-.5-2.4-1.8-2.4-1.2 0-2.4 1-3.2 2.3v11.9H0zM32.7 8c5 0 7.9 3.5 7.9 8.9s-2.9 8.9-7.9 8.9-7.9-3.4-7.9-8.9c0-5.3 2.9-8.9 7.9-8.9zm0 3.1c-2.4 0-3.7 1.8-3.7 5.8s1.3 5.8 3.7 5.8c2.4 0 3.7-1.8 3.7-5.8-.1-4-1.3-5.8-3.7-5.8zM47.7 22.1h7.8l-.4 3.2H43v-2.9l7.7-10.7h-7.4V8.5h12.1v2.9l-7.7 10.7zM60.8 4.9c-1.5 0-2.6-1.1-2.6-2.5s1-2.4 2.6-2.4c1.5 0 2.6 1.1 2.6 2.4-.1 1.4-1.1 2.5-2.6 2.5zm-2.1 20.4V8.5h4.1v16.8h-4.1zM74.3 25.2c-.8.3-1.8.6-2.8.6-2.4 0-4-1.4-4-4.5V1.7l4.1-.4v19.9c0 1 .3 1.3.9 1.3.3 0 .7-.1 1-.2l.8 2.9zM83.6 25.2c-.8.3-1.8.6-2.8.6-2.4 0-4-1.4-4-4.5V1.7l4.1-.4v19.9c0 1 .3 1.3.9 1.3.3 0 .7-.1 1-.2l.8 2.9zM98.8 20.9c0 1.3.3 1.7 1.2 2.1l-.9 2.7c-1.8-.2-3-.8-3.6-2.3-1.2 1.6-3.1 2.3-5.1 2.3-3.4 0-5.5-2.1-5.5-5.3 0-3.6 2.8-5.6 8-5.6H95v-1c0-2.1-1-2.9-3.3-2.9-1.1 0-2.7.3-4.4.9l-1-2.8c2.1-.8 4.3-1.2 6-1.2 4.7 0 6.7 2 6.7 5.7v7.4zm-3.9-.2v-3.4h-1.4c-3.1 0-4.3 1-4.3 2.9 0 1.7.8 2.5 2.4 2.5 1.4.1 2.5-.7 3.3-2z"/>
</svg>
